<svg version="1.2" xmlns="http://www.w3.org/2000/svg" viewBox="0 0 147 140" width="147" height="140">
	<title>New Project</title>
	<style>
		.s0 { fill: #ffc400 } 
	</style>
	<path id="Composite Path" class="s0" d="m118.8 91.8c-3.7 1.7-8.1 0-9.8-3.7-0.5-1.2-0.7-2.5-0.6-3.7l-25.7-9.7c-0.9 1.9-2.5 3.6-4.6 4.5-3.8 1.7-8.2 0.8-10.9-2.1l-14.1 11.1q0.1 0.3 0.2 0.5c1.7 3.7 0.1 8.1-3.7 9.8-3.7 1.7-8.1 0-9.8-3.7-1.6-3.7 0-8.1 3.7-9.8 2.9-1.3 6.1-0.6 8.2 1.5l14.2-11.1q-0.3-0.5-0.5-1c-2.2-4.8-0.1-10.4 4.8-12.6q1.4-0.6 2.8-0.8l0.2-9.8c-2.4-0.4-4.5-1.9-5.5-4.2-1.7-3.7 0-8.1 3.7-9.8 3.7-1.7 8.1 0 9.8 3.7 1.7 3.7 0 8.1-3.7 9.8q-1 0.4-2.1 0.6l-0.2 9.7c3.2 0.4 6.2 2.4 7.7 5.6 0.9 1.9 1 4.1 0.6 6l25.4 9.6c0.7-1.6 2-3.1 3.8-3.9 3.7-1.7 8.1 0 9.8 3.7 1.7 3.7 0 8.1-3.7 9.8zm-41.6-14.6c-3.8 1.7-8.1 0.1-9.8-3.7-1.7-3.7-0.1-8 3.7-9.7 3.7-1.7 8.1-0.1 9.8 3.7 1.6 3.7 0 8-3.7 9.7z"/>
</svg>